<svg xmlns="http://www.w3.org/2000/svg" width="100" height="100" viewBox="0 0 100 100">
  <defs>
    <pattern id="pattern" patternUnits="userSpaceOnUse" width="100" height="100">
      <rect width="100" height="100" fill="#0a0a14" />
      <path d="M0 10 L100 10" stroke="#1a1a2a" stroke-width="1" />
      <path d="M0 30 L100 30" stroke="#1a1a2a" stroke-width="1" />
      <path d="M0 50 L100 50" stroke="#1a1a2a" stroke-width="1" />
      <path d="M0 70 L100 70" stroke="#1a1a2a" stroke-width="1" />
      <path d="M0 90 L100 90" stroke="#1a1a2a" stroke-width="1" />
      
      <path d="M10 0 L10 100" stroke="#1a1a2a" stroke-width="1" />
      <path d="M30 0 L30 100" stroke="#1a1a2a" stroke-width="1" />
      <path d="M50 0 L50 100" stroke="#1a1a2a" stroke-width="1" />
      <path d="M70 0 L70 100" stroke="#1a1a2a" stroke-width="1" />
      <path d="M90 0 L90 100" stroke="#1a1a2a" stroke-width="1" />
      
      <!-- Rune-like symbols scattered around -->
      <path d="M15 15 L20 20 L15 25 L10 20 Z" fill="#6a5acd" opacity="0.1" />
      <path d="M85 85 L90 90 L85 95 L80 90 Z" fill="#6a5acd" opacity="0.1" />
      <path d="M85 15 L90 20 L85 25 L80 20 Z" fill="#6a5acd" opacity="0.1" />
      <path d="M15 85 L20 90 L15 95 L10 90 Z" fill="#6a5acd" opacity="0.1" />
      <path d="M50 50 L55 55 L50 60 L45 55 Z" fill="#6a5acd" opacity="0.1" />
    </pattern>
  </defs>
  
  <rect width="100" height="100" fill="url(#pattern)" />
</svg> 